<?xml version="1.0" encoding="UTF-8"?>
<!-- Created with Inkscape (http://www.inkscape.org/) -->
<svg width="512" height="512" version="1.1" xmlns="http://www.w3.org/2000/svg">
 <path d="m385 52.5-74.7 43.1a3.27 3.27 0 0 0 1.1e-4 5.67l74.7 43.1a9.82 9.82 0 0 0 9.82-1.9e-4l74.7-43.1a3.27 3.27 0 0 0 0-5.67l-74.7-43.1a9.82 9.82 0 0 0-9.82-1.1e-5zm-268 51.7-74.7 43.1a3.27 3.27 0 0 0 3.4e-5 5.67l164 94.8a9.82 9.82 0 0 0 9.82 1.1e-4l74.7-43.1a3.27 3.27 0 0 0 1.2e-4 -5.67l-164-94.8a9.82 9.82 0 0 0-9.82-3e-5zm184 8.61v86.2a9.82 9.82 0 0 0 4.91 8.5l74.7 43.1a3.27 3.27 0 0 0 4.91-2.83v-86.2a9.82 9.82 0 0 0-4.91-8.5l-74.7-43.1a3.27 3.27 0 0 0-4.91 2.83zm174-2.83-74.7 43.1a9.82 9.82 0 0 0-4.91 8.5v86.2a3.27 3.27 0 0 0 4.91 2.83l74.7-43.1a9.82 9.82 0 0 0 4.91-8.5v-86.2a3.27 3.27 0 0 0-4.91-2.83zm-443 54.5v86.2a9.82 9.82 0 0 0 4.91 8.5l79.7 46a9.82 9.82 0 0 1 4.91 8.5v92a9.82 9.82 0 0 0 4.91 8.5l74.7 43.1a3.27 3.27 0 0 0 4.91-2.83v-190a9.82 9.82 0 0 0-4.91-8.5l-164-94.8a3.27 3.27 0 0 0-4.91 2.83zm264 48.8-74.7 43.1a9.82 9.82 0 0 0-4.91 8.5v190a3.27 3.27 0 0 0 4.91 2.83l74.7-43.1a9.82 9.82 0 0 0 4.91-8.5v-190a3.27 3.27 0 0 0-4.91-2.83z" fill="#fff"/>
</svg>