<?xml version="1.0" encoding="UTF-8"?>
<!-- Created with Inkscape (http://www.inkscape.org/) -->
<svg width="512" height="512" version="1.1" viewBox="0 0 135.47 135.47" xmlns="http://www.w3.org/2000/svg">
 <path transform="scale(.26458)" d="m390.25 49.309-79.496 45.898 79.496 45.898 79.498-45.898-79.498-45.898zm-268.5 51.672-79.498 45.898 169 97.572 79.498-45.9-79.498-45.896-89.5-51.674zm358 11.547-79.496 45.898v91.799l79.496-45.896v-91.801zm-179 0.00391v91.795 0.00195l79.498 45.896v-91.799l-79.498-45.895zm89.502 40.121-0.0039 0.00586h0.00586l-0.00196-0.00586zm-358 11.553v91.795l89.5 51.672v103.35l79.502 45.9v-195.14l-169-97.572zm268.5 51.672-79.5 45.9v195.14l79.5-45.9v-103.35-91.795zm89.494 40.119 0.00586 0.00391 0.00586-0.00391h-0.01172zm-179 206.69 0.00391 0.00196 0.00391-0.00196h-0.00782z" fill="#4e89e8" stroke-linecap="round" stroke-width="5.513"/>
</svg>
